:SAMPLES-PER-SECOND 30
:FULLY-SPECIFIED
:DEGREES
276
root  -4.13679 34.601 -5.79024 5.63083 -44.9449 1.96997
RightUpLeg  -8.65309 -11.2978 -6.46022
RightLeg  11.3016 -2.51661 -0.335439
RightFoot  4.63176 0.0229365 -0.0138757
RightToes  -29.868 -0.138364 -0.245983
Spine  -0.615038 2.06142 -1.16102
Spine1  -1.33975 4.27839 -1.63425
HEad  -48.919 -15.073 7.72886
LeftShoulder1  -1.94126e-019 -3.10601e-018 -2.51263e-017
LeftArm  -6.0194 17.6547 -80.0196
LeftForeArm  28.476 -22.285 -3.46727
LeftHand  -0.388044 -1.18223 7.0009
RightShoulder  -4.96962e-017 0 -2.36833e-017
RightArm  -7.81187 5.09293 83.7101
RightForeArm  37.4017 42.701 7.82056
RightHand  0.0965892 -6.12808 -17.401
LeftUpLeg  -11.5776 0.0815648 -3.33334
LeftLeg  9.34981 15.6092 1.52847
LeftFoot  5.01425 -0.0623466 1.5854
LeftToes  -14.7958 1.34695e-006 1.12385e-007
277
root  -4.1481 34.5708 -5.76807 5.38509 -45.5855 1.98302
RightUpLeg  -8.84867 -11.4969 -6.56203
RightLeg  11.9419 -1.63916 -0.237041
RightFoot  4.29695 0.016789 0.0731561
RightToes  -30.0272 -0.13815 -0.245772
Spine  -0.494281 2.37751 -1.14086
Spine1  -1.13108 4.98196 -1.64102
HEad  -49.2794 -14.974 6.88482
LeftShoulder1  -1.94126e-019 -3.10601e-018 -2.51263e-017
LeftArm  -5.85144 16.5356 -80.3316
LeftForeArm  29.2665 -22.0751 -3.46911
LeftHand  -0.404382 -1.23202 7.23942
RightShoulder  -4.96962e-017 0 -2.36833e-017
RightArm  -4.82213 7.43785 84.2188
RightForeArm  37.6942 30.7514 4.6021
RightHand  -0.207854 -4.36025 -22.5413
LeftUpLeg  -11.7129 0.648534 -3.37723
LeftLeg  10.2787 15.6842 1.7893
LeftFoot  4.45619 -0.0529118 1.44415
LeftToes  -14.5745 1.34695e-006 1.12385e-007
278
root  -4.14175 34.5575 -5.74892 5.31875 -45.6358 1.93776
RightUpLeg  -8.8264 -11.7745 -6.59708
RightLeg  12.0916 -1.29259 -0.190261
RightFoot  4.22458 0.0148163 0.10052
RightToes  -29.8652 -0.137933 -0.245559
Spine  -0.287442 2.85986 -1.19405
Spine1  -0.723456 5.96257 -1.76036
HEad  -50.7806 -15.8731 6.8474
LeftShoulder1  -1.94126e-019 -3.10601e-018 -2.51263e-017
LeftArm  -4.61233 14.9954 -80.4967
LeftForeArm  29.8035 -22.5133 -3.58756
LeftHand  -0.410891 -1.32605 7.25831
RightShoulder  -4.96962e-017 0 -2.36833e-017
RightArm  -1.83414 4.17283 82.3945
RightForeArm  38.5839 36.7966 6.03301
RightHand  0.274991 -6.50349 -28.4109
LeftUpLeg  -11.9806 0.812818 -3.3821
LeftLeg  11.0617 15.5543 1.98762
LeftFoot  4.12036 -0.0461596 1.34242
LeftToes  -14.423 1.34695e-006 1.12385e-007
279
root  -4.12343 34.5658 -5.73743 5.81212 -44.8036 1.60354
RightUpLeg  -8.68163 -12.3816 -6.34201
RightLeg  11.6422 -1.54695 -0.215365
RightFoot  4.47488 0.0165469 0.0749552
RightToes  -29.7904 -0.137715 -0.245347
Spine  -0.235487 2.94729 -1.23662
Spine1  -0.618888 6.13466 -1.84465
HEad  -52.8584 -16.5571 7.37703
LeftShoulder1  -1.94126e-019 -3.10601e-018 -2.51263e-017
LeftArm  -4.51764 14.3962 -80.5574
LeftForeArm  29.9053 -23.6166 -3.73811
LeftHand  -0.409961 -1.36466 7.20388
RightShoulder  -4.96962e-017 0 -2.36833e-017
RightArm  -4.87418 -1.11703 81.2412
RightForeArm  41.0727 51.3801 10.7848
RightHand  0.223611 -6.39533 -26.0401
LeftUpLeg  -12.7354 0.445305 -3.17471
LeftLeg  11.9309 15.0626 2.15599
LeftFoot  3.90235 -0.0399318 1.2471
LeftToes  -14.1219 1.34695e-006 1.12385e-007
280
root  -4.1064 34.5692 -5.71465 6.43273 -43.6245 1.27076
RightUpLeg  -8.46184 -13.2298 -6.05412
RightLeg  10.9751 -1.5828 -0.201513
RightFoot  4.75031 0.0175063 0.0603996
RightToes  -29.588 -0.1375 -0.245137
Spine  -0.279863 2.44543 -1.06954
Spine1  -0.679981 5.1036 -1.48958
HEad  -55.0404 -15.5937 6.96601
LeftShoulder1  -1.94126e-019 -3.10601e-018 -2.51263e-017
LeftArm  -5.60789 15.2536 -80.82
LeftForeArm  28.7926 -24.861 -3.86812
LeftHand  -0.411726 -1.14391 7.46061
RightShoulder  -4.96962e-017 0 -2.36833e-017
RightArm  -7.95432 -3.93642 81.134
RightForeArm  46.6674 64.2822 18.6606
RightHand  0.0119473 -5.54161 -18.3779
LeftUpLeg  -13.5696 -0.0823661 -2.96972
LeftLeg  12.6553 14.416 2.24957
LeftFoot  3.70496 -0.0335234 1.14768
LeftToes  -13.8397 1.34695e-006 1.12385e-007
281
root  -4.10484 34.563 -5.70258 6.69147 -43.0446 1.13471
RightUpLeg  -8.2138 -13.0867 -5.93028
RightLeg  10.466 -2.29496 -0.271742
RightFoot  4.85522 0.0219447 -0.00387809
RightToes  -29.5602 -0.137288 -0.244932
Spine  -0.326881 1.81776 -0.931833
Spine1  -0.752322 3.81328 -1.18402
HEad  -56.822 -13.6791 6.11972
LeftShoulder1  -1.94126e-019 -3.10601e-018 -2.51263e-017
LeftArm  -6.61112 16.8894 -80.8435
LeftForeArm  27.1804 -26.0336 -4.10307
LeftHand  -0.419004 -0.863766 7.90666
RightShoulder  -4.96962e-017 0 -2.36833e-017
RightArm  -8.53262 -3.46498 81.8789
RightForeArm  51.525 69.5283 24.6382
RightHand  0.0878369 -6.18193 -15.3213
LeftUpLeg  -13.9631 -0.349101 -2.87785
LeftLeg  13.0499 14.0891 2.29797
LeftFoot  3.56931 -0.0297652 1.08861
LeftToes  -13.6954 1.34695e-006 1.12385e-007
